/* XPM */
static char *_e4b26bf8f474712ef3995c2bb79886achop0iDozYPmeO5z[] = {
/* columns rows colors chars-per-pixel */
"70 70 23 1 ",
"  c #47704C",
". c #FEFEFE",
"X c white",
"o c white",
"O c gray99",
"+ c #FEFEFE",
"@ c #FDFDFD",
"# c #FEFEFE",
"$ c #FEFEFE",
"% c #FEFEFE",
"& c None",
"* c #FEFEFE",
"= c #FDFDFD",
"- c #FEFEFE",
"; c white",
": c #FEFEFE",
"> c #FDFDFD",
", c #FEFEFE",
"< c white",
"1 c #FDFDFD",
"2 c #FDFDFD",
"3 c #FEFEFE",
"4 c #FEFEFE",
/* pixels */
"                                                                      ",
"                                                                      ",
"                                                                      ",
"                                                                      ",
"                                                                      ",
"                                                                      ",
"                                                                      ",
"                                                                      ",
"                                                                      ",
"                                                                      ",
"                                                                      ",
"                                                                      ",
"                                                                      ",
"                                                                      ",
"                                                                      ",
"                                                                      ",
"                                                                      ",
"                                                                      ",
"                                                                      ",
"                                                                      ",
"                                                                      ",
"                                                                      ",
"                                                                      ",
"                                                                      ",
"                                                                      ",
"                                                                      ",
"                                                                      ",
"        $.....+        +........O     $.......$O    @........$        ",
"       O<XXXXX=        =XXXXXXX#$     -&XXXXXX;@    1*XXXXXXX<O       ",
"       O;X-o,4:        3oooooo#*$    O>ooooo-X%@    >&;oooo<4;O       ",
"       O,#@ =4:              O%*$           +#%@    >&=    .&;O       ",
"       O2-@ =4:              @%*$           +#%@    >&=    .&;O       ",
"        OO  =4:              @%*$           +#%@    1#>    .&;O       ",
"            =4:        O+++++$%*$     O+++++.#%@    @+@    .&;O       ",
"            =4:        +,#####&*$     $%#####4%@           .&;O       ",
"            =4:        @2-----**$    O+o----<X%@          O.&;O       ",
"            =4:              @%*$           +#%@           .&;O       ",
"            =4:              @%*$           +#%@          O.&;O       ",
"            =4:              @%*$           +#%@           .&;O       ",
"            =4:              O%*$           +#%@          O.&;O       ",
"          1o;4,o>      3oooooo**$     >ooooo-X%@           .&;O       ",
"          2XXXXXo      =XXXXXXX#$     -&XXXXXX;@           .#<O       ",
"          +.....+      +.......$O     $.......$O           @.$        ",
"                               O                                      ",
"                                                                      ",
"                                                                      ",
"                                                                      ",
"                                                                      ",
"                                                                      ",
"                                                                      ",
"                                                                      ",
"                                                                      ",
"                                                                      ",
"                                                                      ",
"                                                                      ",
"                                                                      ",
"                                                                      ",
"                                                                      ",
"                                                                      ",
"                                                                      ",
"                                                                      ",
"                                                                      ",
"                                                                      ",
"                                                                      ",
"                                                                      ",
"                                                                      ",
"                                                                      ",
"                                                                      ",
"                                                                      ",
"                                                                      "
};
